<svg xmlns="http://www.w3.org/2000/svg" xmlns:xlink="http://www.w3.org/1999/xlink" id="Layer_1" x="0" y="0" version="1.1" viewBox="0 0 58.6 55" xml:space="preserve" style="enable-background:new 0 0 58.6 55"><style type="text/css">.st0{fill:url(#skyfallGradBracket)}.st1{fill:url(#skyfallGradLogo)}</style><switch><g><path d="M3.1,10.7c0.6,4.5,1.1,5.5,1.1,10c0,2.8-4.2,5.2-4.2,5.2v3.4c0,0,4.2,2.4,4.2,5.2c0,4.5-0.6,5.5-1.1,10 C2.2,51.6,5.3,55,8.1,55s5.9,0,5.9,0v-6.9c0,0-5,0.7-5-3.4c0-3.1,0.6-3.1,1.1-10c0.3-3.1-1.4-5.5-3.1-7.2c1.7-1.7,3.4-3.8,3.1-6.9 C9.2,13.8,9,13.8,9,10.7c0-4.1,5-3.8,5-3.8V0c0,0-2.8,0-5.9,0S2.2,3.4,3.1,10.7z" class="st0"/><path d="M-41.4-30.4" class="st0"/><path d="M126.1,96.4c-0.2-0.4-0.6-0.6-1-0.6h-15.2l2.5-19.4c0.1-0.6-0.4-1.2-1-1.3c-0.4,0-0.9,0.2-1.1,0.5l-18.4,32.3 c-0.3,0.5-0.2,1.3,0.4,1.6c0.2,0.1,0.4,0.2,0.6,0.2h14.9l-2,19.5c0,0.6,0.4,1.2,1.1,1.3c0.4,0,0.8-0.2,1.1-0.5l18.1-32.3 C126.3,97.2,126.3,96.7,126.1,96.4L126.1,96.4z"/><path d="M55.5,44.7c-0.5-4.5-1-5.5-1-10c0-2.7,4.2-5.1,4.2-5.1l0-3.4c0,0-4.1-2.5-4-5.2c0.1-4.5,0.6-5.5,1.2-9.9 c0.9-7.2-2.1-10.7-4.8-10.7s-5.7-0.1-5.7-0.1l-0.1,6.9c0,0,4.9-0.6,4.9,3.5c0,3.1-0.6,3.1-1.2,9.9c-0.3,3.1,1.3,5.5,2.9,7.2 c-1.7,1.7-3.3,3.7-3.1,6.8c0.7,6.9,1,6.9,1,10c0,4.1-5,3.7-5,3.7l-0.1,6.9c0,0,2.7,0,5.7,0.1S56.3,51.9,55.5,44.7z" class="st0"/><linearGradient id="skyfallGradBracket" x1="-272.207" x2="-261.119" y1="388.084" y2="399.172" gradientTransform="matrix(2.6667 0 0 -2.6667 740.6251 1077.4481)" gradientUnits="userSpaceOnUse"><stop offset="0" style="stop-color:#0098db"/><stop offset="1" style="stop-color:#f3c808"/></linearGradient><linearGradient id="skyfallGradLogo" x1="-272.207" x2="-261.119" y1="388.084" y2="399.172" gradientTransform="matrix(2.6667 0 0 -2.6667 740.6251 1077.4481)" gradientUnits="userSpaceOnUse"><stop offset="0" style="stop-color:#0098db"/><stop offset="1" style="stop-color:#f3c808"/></linearGradient><path d="M46.1,21.6c-0.2-0.4-0.6-0.6-1-0.6H30.3l2.5-18.9c0.1-0.6-0.4-1.2-1-1.2c-0.4,0-0.8,0.2-1.1,0.5l-18,31.5 c-0.3,0.5-0.2,1.2,0.4,1.6c0.2,0.1,0.4,0.2,0.6,0.2h14.6l-2,19c0,0.6,0.4,1.2,1,1.2c0.4,0,0.8-0.2,1-0.5l17.7-31.5 C46.3,22.4,46.3,21.9,46.1,21.6L46.1,21.6z" class="st1"/></g></switch></svg>